<svg width="51" height="33" viewBox="0 0 51 33" fill="none" xmlns="http://www.w3.org/2000/svg">
<path fill-rule="evenodd" clip-rule="evenodd" d="M15.8071 16.3806C15.8939 16.5898 16.0651 16.7512 16.2759 16.8228L24.8684 19.7418C24.976 19.7784 25.0885 19.7897 25.198 19.7767C25.3021 19.7643 25.4035 19.7298 25.4953 19.6741L32.9561 15.1461C33.1557 15.025 33.2888 14.8163 33.3171 14.5799C33.3455 14.3434 33.2661 14.1053 33.1016 13.9338L22.9302 3.32929C22.7565 3.14827 22.5093 3.06296 22.2657 3.1009C22.0224 3.13871 21.8136 3.29474 21.7053 3.51962L15.8234 15.7332C15.7262 15.935 15.7202 16.1713 15.8071 16.3806Z" fill="#FFCC02"/>
<path fill-rule="evenodd" clip-rule="evenodd" d="M25.6777 22.0341C25.6381 21.7407 25.4396 21.4934 25.1654 21.3956L2.51159 13.3228C2.1974 13.2108 1.85095 13.3184 1.65471 13.5891C1.45861 13.8597 1.45782 14.2311 1.6528 14.5078L12.8598 30.409C13.0292 30.6494 13.3065 30.7648 13.5745 30.7329C13.6896 30.7191 13.803 30.6782 13.9053 30.6082L25.3522 22.7798C25.5912 22.6163 25.7172 22.3275 25.6777 22.0341Z" fill="#EFAE07"/>
<path fill-rule="evenodd" clip-rule="evenodd" d="M47.115 7.97063C46.8582 7.75081 46.4941 7.72461 46.2152 7.90587L13.2671 29.3116C12.9689 29.5053 12.8437 29.8851 12.9654 30.228C13.0871 30.5711 13.4231 30.7843 13.7757 30.744L39.3917 27.8163L39.3954 27.8159C39.6684 27.7833 39.9016 27.605 40.0047 27.3451L47.3368 8.8668C47.4613 8.5531 47.3715 8.19038 47.115 7.97063Z" fill="#FFCC02"/>
</svg>
